HIERARCHY
ROOT Hips
{
	OFFSET 0.000000 0.000000 0.000000
	CHANNELS 6 Xposition Yposition Zposition Yrotation Xrotation Zrotation 
	JOINT LeftHip
	{
		OFFSET 0.094196 0.000343 -0.000038
		CHANNELS 3 Yrotation Xrotation Zrotation
		JOINT LeftKnee
		{
			OFFSET 0.000000 -0.468901 0.000041
			CHANNELS 3 Yrotation Xrotation Zrotation
			JOINT LeftAnkle
			{
				OFFSET 0.000000 -0.397674 0.000438
				CHANNELS 3 Yrotation Xrotation Zrotation
				JOINT LeftToe
				{
					OFFSET 0.000000 -0.090712 0.195501
					CHANNELS 3 Yrotation Xrotation Zrotation
					End Site
					{
						OFFSET 0.000000 0.000000 0.000000
					}
				}
			}
		}
	}
	JOINT RightHip
	{
		OFFSET -0.094196 0.000364 -0.000040
		CHANNELS 3 Yrotation Xrotation Zrotation
		JOINT RightKnee
		{
			OFFSET 0.000000 -0.468901 0.000041
			CHANNELS 3 Yrotation Xrotation Zrotation
			JOINT RightAnkle
			{
				OFFSET 0.000000 -0.397674 0.000438
				CHANNELS 3 Yrotation Xrotation Zrotation
				JOINT RightToe
				{
					OFFSET 0.000000 -0.090712 0.195501
					CHANNELS 3 Yrotation Xrotation Zrotation
					End Site
					{
						OFFSET 0.000000 0.000000 0.000000
					}
				}
			}
		}
	}
	JOINT Chest
	{
		OFFSET 0.000000 0.113860 -0.012651
		CHANNELS 3 Yrotation Xrotation Zrotation
		JOINT Chest3
		{
			OFFSET -0.002400 0.210882 -0.005802
			CHANNELS 3 Yrotation Xrotation Zrotation
			JOINT Chest4
			{
				OFFSET 0.000000 0.100637 -0.000145
				CHANNELS 3 Yrotation Xrotation Zrotation
				JOINT Neck
				{
					OFFSET 0.000000 0.138831 0.000000
					CHANNELS 3 Yrotation Xrotation Zrotation
					JOINT Head
					{
						OFFSET 0.000000 0.095420 0.000176
						CHANNELS 3 Yrotation Xrotation Zrotation
						End Site
						{
							OFFSET 0.000000 0.000000 0.000000
						}
					}
				}
				JOINT LeftCollar
				{
					OFFSET 0.029338 0.077908 0.000000
					CHANNELS 3 Yrotation Xrotation Zrotation
					JOINT LeftShoulder
					{
						OFFSET 0.140442 0.000000 0.000000
						CHANNELS 3 Yrotation Xrotation Zrotation
						JOINT LeftElbow
						{
							OFFSET 0.303173 0.000000 0.000000
							CHANNELS 3 Yrotation Xrotation Zrotation
							JOINT LeftWrist
							{
								OFFSET 0.261212 0.000000 0.000049
								CHANNELS 3 Yrotation Xrotation Zrotation
								End Site
								{
									OFFSET 0.000000 0.000000 0.000000
								}
							}
						}
					}
				}
				JOINT RightCollar
				{
					OFFSET -0.029338 0.077908 0.000000
					CHANNELS 3 Yrotation Xrotation Zrotation
					JOINT RightShoulder
					{
						OFFSET -0.140442 0.000000 0.000000
						CHANNELS 3 Yrotation Xrotation Zrotation
						JOINT RightElbow
						{
							OFFSET -0.303173 0.000000 0.000000
							CHANNELS 3 Yrotation Xrotation Zrotation
							JOINT RightWrist
							{
								OFFSET -0.261212 0.000000 0.000049
								CHANNELS 3 Yrotation Xrotation Zrotation
								End Site
								{
									OFFSET 0.000000 0.000000 0.000000
								}
							}
						}
					}
				}
			}
		}
	}
}
MOTION
Frames: 14
Frame Time: 0.016667
0.000000 0.000000 0.000000 174.216636 357.160231 349.409486 6.716579 345.785909 23.085815 4.994035 23.586018 5.666065 10.776501 355.739445 346.230433 359.006953 0.041581 358.314775 354.049503 338.669801 353.729259 2.592152 23.483871 1.074314 0.539182 4.687204 12.226245 359.659743 356.468458 358.569577 359.770047 14.973210 359.098100 0.612042 11.921161 3.050036 0.844787 10.635899 359.327261 3.271506 4.320330 2.957640 4.962284 331.497821 5.385814 355.046054 359.213184 6.423296 246.870572 336.182906 21.293988 328.299834 302.291597 36.448872 11.839915 355.388682 27.722177 6.073815 0.011723 0.150340 96.257557 323.941630 358.970670 36.857709 317.153623 340.231920 354.148621 355.593709 333.377871 
0.000000 0.000000 0.000000 174.141949 356.831739 349.096524 6.580547 345.323591 23.422371 4.908875 24.831404 5.566388 10.488316 355.384587 346.088781 358.997315 359.542860 358.201561 354.019512 338.838506 353.670868 2.622356 23.457384 1.028864 0.777203 4.881551 12.419479 359.638307 356.319588 358.611411 359.891214 15.177535 358.885952 0.579201 11.981321 2.970356 0.839136 10.594496 359.162118 3.467507 4.201211 3.298462 5.179359 331.469685 5.681896 355.042500 359.391350 6.824299 246.805798 336.559579 21.991806 329.834108 302.192006 35.698826 12.046546 355.547383 28.041514 6.005466 0.054042 0.258778 97.077587 324.190803 358.144925 36.991124 316.410993 340.045613 353.877749 355.464172 332.975641 
0.000000 0.000000 0.000000 173.970845 356.485311 348.817275 6.457302 344.859860 23.633214 4.847309 26.184967 5.445270 10.350978 355.057734 346.046901 358.956532 359.037366 358.073479 354.062386 339.058571 353.557916 2.663602 23.431514 0.959024 1.063621 5.073339 12.615332 359.626566 356.130936 358.671633 0.004639 15.363738 358.678981 0.578519 12.070448 2.856907 0.846550 10.566888 359.000734 3.679291 4.114935 3.577418 5.445370 331.504150 5.867890 355.061516 359.506596 7.253490 246.775178 336.896644 22.735455 331.374155 301.939811 35.013398 12.101906 355.632998 28.322073 5.951943 0.070254 0.391135 97.918389 324.413893 357.321125 36.810376 315.653463 340.016853 353.580380 355.442171 332.851756 
0.000000 0.000000 0.000000 173.735747 356.165032 348.555275 6.356847 344.390809 23.712390 4.812238 27.590238 5.306183 10.375982 354.667682 346.104807 358.886380 358.624147 357.938979 354.166583 339.298565 353.392138 2.715778 23.428102 0.869447 1.367811 5.252107 12.806161 359.632384 355.916980 358.748484 0.113491 15.535548 358.498398 0.583138 12.170001 2.713242 0.865358 10.543949 358.853535 3.888001 4.072804 3.818170 5.662697 331.612505 6.050302 355.102265 359.573760 7.674693 246.776051 337.159131 23.466179 332.637950 301.497812 34.550385 11.996050 355.601101 28.515424 5.899621 0.068697 0.527528 98.730154 324.580256 356.488333 36.462198 315.065642 340.174193 353.320887 355.595337 332.957973 
0.000000 0.000000 0.000000 173.462625 355.876293 348.277936 6.291160 343.938022 23.662001 4.802840 28.964516 5.162397 10.537895 354.152253 346.262157 358.802111 358.368401 357.802293 354.311074 339.531363 353.195199 2.762150 23.461453 0.756238 1.631846 5.420110 12.981623 359.666624 355.693430 358.840325 0.214909 15.697951 358.352493 0.570940 12.256795 2.538618 0.892532 10.531124 358.736053 4.087414 4.081026 4.025793 5.823238 331.772261 6.263353 355.162188 359.616333 8.046682 246.803946 337.346564 24.128314 333.500553 300.962268 34.312747 11.806885 355.527005 28.616783 5.839533 0.064219 0.644855 99.448254 324.665767 355.664679 36.160039 314.650478 340.435444 353.194432 355.833257 333.162608 
0.000000 0.000000 0.000000 173.217712 355.612023 347.964754 6.254736 343.506365 23.503847 4.812521 30.261743 5.033998 10.778678 353.483626 346.516067 358.716747 358.289405 357.662233 354.467413 339.744564 352.992945 2.770599 23.537198 0.628590 1.779957 5.601464 13.132500 359.737027 355.465615 358.938111 0.306817 15.859749 358.240322 0.525188 12.329037 2.348926 0.923615 10.523891 358.658309 4.268660 4.134557 4.216140 5.927841 331.950239 6.529447 355.235326 359.649609 8.347654 246.844505 337.480529 24.700647 333.979042 300.543300 34.225750 11.641998 355.531439 28.698769 5.765895 0.065305 0.730074 100.025876 324.641093 354.913437 36.104333 314.224684 340.642971 353.314280 355.966211 333.290167 
0.000000 0.000000 0.000000 173.048751 355.358614 347.607180 6.235473 343.106229 23.267857 4.835151 31.442930 4.943630 11.026556 352.687149 346.870677 358.646077 358.359137 357.509630 354.606437 339.940065 352.814398 2.705168 23.653021 0.494761 1.767320 5.825322 13.254714 359.837541 355.234517 359.030652 0.390100 16.031369 358.161873 0.431045 12.393166 2.162790 0.954889 10.519498 358.624564 4.423962 4.219716 4.402844 5.995910 332.107963 6.846882 355.307284 359.693758 8.560530 246.883337 337.597724 25.175200 334.206789 300.334450 34.159411 11.553252 355.600279 28.824218 5.678067 0.077862 0.774107 100.453455 324.489381 354.304733 36.396323 313.658737 340.694788 353.693326 355.896729 333.218629 
0.000000 0.000000 0.000000 172.963365 355.111466 347.224739 6.213920 342.748685 22.984767 4.872660 32.481882 4.905868 11.237791 351.811066 347.326126 358.602718 358.538465 357.336771 354.704215 340.110763 352.680942 2.546337 23.814473 0.368564 1.589777 6.102591 13.336109 359.952817 355.002052 359.115098 0.464091 16.220367 358.117137 0.287815 12.453822 1.995613 0.977680 10.518369 358.628416 4.554557 4.318228 4.596787 6.049429 332.210279 7.198940 355.366090 359.769114 8.676858 246.917270 337.720429 25.544378 334.300041 300.311010 34.030830 11.529312 355.634599 28.964543 5.579348 0.110875 0.771383 100.766598 324.244982 353.865018 36.972284 313.048778 340.616726 354.199150 355.729909 332.944973 
0.000000 0.000000 0.000000 172.933493 354.890079 346.864726 6.173373 342.442786 22.678632 4.929606 33.356536 4.925683 11.409815 350.929378 347.859944 358.587987 358.774867 357.145879 354.749174 340.241703 352.602051 2.291664 24.029703 0.257901 1.285304 6.428675 13.366036 0.061806 354.769847 359.191072 0.526666 16.426929 358.100430 0.103436 12.511054 1.857164 0.984073 10.518006 358.652137 4.667941 4.412512 4.801566 6.114733 332.242080 7.554509 355.414008 359.887594 8.714030 246.954617 337.839429 25.803230 334.285171 300.358957 33.827246 11.537394 355.530661 28.968794 5.479805 0.174714 0.729599 101.011713 323.984088 353.560625 37.634737 312.664404 340.570053 354.617715 355.637986 332.585294 
0.000000 0.000000 0.000000 172.917399 354.718899 346.572466 6.106364 342.199205 22.365911 5.010330 34.050366 4.996997 11.568161 350.106449 348.425165 358.595335 359.030992 356.951712 354.739200 340.330450 352.576276 1.953948 24.284726 0.165771 0.922363 6.799667 13.344359 0.145353 354.544279 359.256623 0.573969 16.642496 358.102926 359.886878 12.567914 1.743493 0.974916 10.513755 358.678931 4.768491 4.494488 5.008735 6.220674 332.204918 7.876747 355.472433 0.039408 8.720139 247.011793 337.924266 25.975653 334.116610 300.363706 33.606444 11.535016 355.272117 28.741843 5.392931 0.273574 0.676132 101.273807 323.793743 353.284806 38.150591 312.672827 340.700482 354.828747 355.688605 332.270241 
0.000000 0.000000 0.000000 172.887439 354.609770 346.364032 6.014426 342.040661 22.061300 5.121263 34.544677 5.102434 11.737764 349.393560 348.982156 358.612196 359.274109 356.766471 354.680911 340.372126 352.597269 1.554629 24.567959 0.090595 0.559570 7.203868 13.273537 0.194105 354.333445 359.314163 0.607739 16.858108 358.112398 359.665316 12.618064 1.652001 0.959227 10.499085 358.696781 4.855131 4.561335 5.211660 6.360869 332.116638 8.152623 355.551806 0.218316 8.723697 247.101258 337.997096 26.144683 333.768010 300.301928 33.470999 11.480342 354.967822 28.445395 5.314991 0.404602 0.621135 101.581572 323.726248 352.951142 38.424750 313.041725 340.990472 354.867307 355.794697 332.027265 
0.000000 0.000000 0.000000 172.836363 354.536989 346.217927 5.901775 341.973626 21.774289 5.257256 34.848898 5.226465 11.926193 348.813374 349.503790 358.635460 359.482854 356.601829 354.584729 340.368172 352.653229 1.121560 24.865967 0.035440 0.229984 7.627876 13.165364 0.208370 354.144940 359.359699 0.628430 17.062011 358.117190 359.465474 12.657456 1.576131 0.948218 10.470733 358.697990 4.922575 4.614601 5.407407 6.509902 332.002435 8.392778 355.654978 0.413879 8.753120 247.231808 338.073008 26.392921 333.292764 300.223459 33.482465 11.320169 354.763653 28.349461 5.241523 0.557837 0.578474 101.927152 323.776077 352.513667 38.461171 313.634824 341.311694 354.865941 355.853755 331.764392 
0.000000 0.000000 0.000000 172.773778 354.465812 346.093438 5.771327 341.997559 21.514013 5.409600 34.989755 5.359864 12.129747 348.366388 349.977139 358.661708 359.647275 356.458845 354.462927 340.322977 352.733036 0.674059 25.170248 0.001421 359.934269 8.056681 13.031703 0.199437 353.985893 359.390618 0.639149 17.242715 358.106098 359.305447 12.687088 1.508077 0.955551 10.426499 358.680902 4.962037 4.660911 5.598928 6.637900 331.894992 8.619431 355.779469 0.616151 8.826612 247.393114 338.145114 26.767643 332.742651 300.242719 33.649048 11.055183 354.750535 28.626336 5.164554 0.723078 0.560016 102.285493 323.886348 351.983501 38.336169 314.320881 341.523469 354.950923 355.829227 331.397616 
0.000000 0.000000 0.000000 172.719999 354.374187 345.945161 5.626146 342.102295 21.289113 5.565616 35.006817 5.493761 12.336556 348.036287 350.391988 358.690803 359.765695 356.337489 354.325241 340.245085 352.831773 0.221509 25.472608 359.985777 359.649705 8.476240 12.881197 0.181668 353.863228 359.406216 0.646191 17.394118 358.071762 359.191868 12.712933 1.441891 0.985888 10.372082 358.648408 4.975024 4.700963 5.792979 6.710503 331.818640 8.863712 355.911383 0.819383 8.937735 247.550321 338.191652 27.222246 332.194456 300.379847 33.885867 10.760109 354.863589 29.105272 5.085205 0.889285 0.571914 102.624339 323.976105 351.427557 38.196719 314.986190 341.540747 355.192537 355.723585 330.960155 
